<svg xmlns="http://www.w3.org/2000/svg" viewBox="0 0 390.14 390.14"><defs><style>.cls-1{fill:#e8413f;}.cls-2{fill:#fff;}</style></defs><title>logo</title><g id="Layer_2" data-name="Layer 2"><g id="Layer_1-2" data-name="Layer 1"><circle class="cls-1" cx="195.07" cy="195.07" r="195.07"/><path class="cls-2" d="M188.84,213.93c7.54,20.19-11.75,42.81-24.41,51.85-21.42,15.37-46.73,15.08-63,6.33-13.57-7.23-25.33-25.92-25.93-50.64C74.28,157.55,128,103,161.72,90c16.27-6.33,31.05-7.54,40.7.9,6.62,5.74,13.55,14.47,16,22,2.72,8.75,1.8,17.19-2.71,26.54s-8.75,21.09-12.07,29.84c-.9,2.42-3,4.22-6.62,1.82-6.94-4.53-11.76-13.88-7.25-28.94,4.83-16,15.68-33.18,8.75-40.41-8.44-9-54.27,15.37-81.4,60.31-26.54,44-23.51,88.62-8.75,100.69,19.3,15.67,51.25-4.53,74.18-49.45C184,210,187.34,210,188.84,213.93Z"/><path class="cls-2" d="M230.91,143.37c-.46-2.07.22-3,2.53-2.76,19.12,1.15,44.46-5.53,57.37-5.76,9.67-.24,14.74,3.69,17.5,11.28.69,1.85.23,3.47-2.53,3-16.58-.23-32.72,3.91-46.77,6.23-9.21,13.81-20.5,33.86-31.79,54.36a133.36,133.36,0,0,1,16.36-1.85c11.52-.45,16.59,3.24,18.89,10.37.69,2.07.69,3.46-2.3,3.46-12.44,0-29.72,3.23-42.62,6.45-6.68,12.91-12.91,25.58-17.74,36.4,11.06-3.45,26.26-6.69,35.71-7.14,11.28-.46,17,3.22,19.58,10.13.68,2.08.46,3.45-2.3,3.45-12.91-.22-38,5.76-50.92,9.22-4.37,1.15-6.91,1.15-9.68-2.3-1.84-2.07-3.22-5.53-4.84-8.53-2.07-3.91-2.07-6.91.24-13.13,10.6-28.33,33.64-71.18,53-101.13C234.82,152.82,232.3,148.21,230.91,143.37Z"/></g></g></svg>